<svg xmlns="http://www.w3.org/2000/svg" xmlns:xlink="http://www.w3.org/1999/xlink" width="343" height="186" viewBox="0 0 343 186"><defs><style>.a{fill:#50aa03;}.b{clip-path:url(#a);}.c{fill:none;stroke:#4aa100;stroke-miterlimit:10;stroke-width:25px;}</style><clipPath id="a"><rect class="a" width="343" height="186" rx="6" transform="translate(3 712)"/></clipPath></defs><g transform="translate(-16 -341)"><rect class="a" width="343" height="186" rx="6" transform="translate(16 341)"/><g class="b" transform="translate(13 -371)"><g transform="translate(-579.264 456.945)"><path class="c" d="M907,467.055v-269" transform="translate(-152.823)"/><path class="c" d="M853.925,476.414l-92-252.777" transform="translate(-99.748 -9.359)"/><path class="c" d="M807.252,503.361,634.342,297.3" transform="translate(-53.075 -36.306)"/><path class="c" d="M772.61,544.646l-232.961-134.5" transform="translate(-18.433 -77.59)"/><path class="c" d="M754.177,595.289,489.264,548.578" transform="translate(0 -128.234)"/><path class="c" d="M754.177,622.236,489.264,668.947" transform="translate(0 -155.181)"/><path class="c" d="M772.61,622.236l-232.961,134.5" transform="translate(-18.433 -155.181)"/><path class="c" d="M807.252,622.236,634.342,828.3" transform="translate(-53.075 -155.181)"/><path class="c" d="M853.925,622.236l-92,252.777" transform="translate(-99.748 -155.181)"/><path class="c" d="M907,622.236v269" transform="translate(-152.823 -155.181)"/><path class="c" d="M907,622.236l92,252.777" transform="translate(-152.823 -155.181)"/><path class="c" d="M907,622.236,1079.91,828.3" transform="translate(-152.823 -155.181)"/><path class="c" d="M907,622.236l232.961,134.5" transform="translate(-152.823 -155.181)"/><path class="c" d="M907,622.236l264.913,46.711" transform="translate(-152.823 -155.181)"/><path class="c" d="M907,595.289l264.913-46.711" transform="translate(-152.823 -128.234)"/><path class="c" d="M907,544.646l232.961-134.5" transform="translate(-152.823 -77.59)"/><path class="c" d="M907,503.361,1079.91,297.3" transform="translate(-152.823 -36.306)"/><path class="c" d="M907,476.414l92-252.777" transform="translate(-152.823 -9.359)"/></g></g></g></svg>